<svg width="33" height="33" viewBox="0 0 33 33" fill="none" xmlns="http://www.w3.org/2000/svg">
<path d="M16.925 28.4135C16.6334 28.4132 16.3539 28.2972 16.1478 28.0909L6.2208 18.1345C4.87745 16.764 4.125 14.9214 4.125 13.0023C4.125 11.0833 4.87745 9.24068 6.2208 7.87019C7.58198 6.50915 9.42805 5.74454 11.353 5.74454C13.2779 5.74454 15.1239 6.50915 16.4851 7.87019L16.925 8.25143L17.3356 7.84086C18.0086 7.16048 18.8102 6.62081 19.6939 6.25327C20.5775 5.88572 21.5254 5.69766 22.4824 5.70002C23.4384 5.69574 24.3856 5.8815 25.2692 6.2465C26.1528 6.6115 26.955 7.14847 27.6292 7.8262C28.9726 9.19669 29.725 11.0393 29.725 12.9583C29.725 14.8774 28.9726 16.72 27.6292 18.0905L17.7022 28.0469C17.6038 28.157 17.4844 28.2462 17.3509 28.3092C17.2173 28.3722 17.0725 28.4076 16.925 28.4135ZM11.3676 7.88485C10.7017 7.88001 10.0413 8.00708 9.42473 8.25876C8.80813 8.51043 8.24747 8.88171 7.77511 9.35118C6.82328 10.3075 6.28891 11.6018 6.28891 12.951C6.28891 14.3003 6.82328 15.5946 7.77511 16.5509L16.925 25.7594L26.0602 16.5802C26.5333 16.1076 26.9086 15.5465 27.1646 14.9288C27.4207 14.3111 27.5525 13.649 27.5525 12.9803C27.5525 12.3117 27.4207 11.6496 27.1646 11.0319C26.9086 10.4142 26.5333 9.85306 26.0602 9.38051C25.5916 8.91015 25.0336 8.53816 24.4193 8.28636C23.8049 8.03456 23.1463 7.90802 22.4824 7.91418C21.8164 7.90933 21.1561 8.03641 20.5395 8.28808C19.9229 8.53975 19.3622 8.91104 18.8899 9.38051L17.7022 10.5682C17.4924 10.7673 17.2142 10.8783 16.925 10.8783C16.6358 10.8783 16.3576 10.7673 16.1478 10.5682L14.9601 9.38051C14.4902 8.90574 13.9306 8.52905 13.3139 8.2723C12.6972 8.01555 12.0356 7.88385 11.3676 7.88485Z" fill="#18242F"/>
</svg>
