<svg width="33" height="33" viewBox="0 0 33 33" fill="none" xmlns="http://www.w3.org/2000/svg">
<path d="M16.2991 4.1001C15.5211 4.1001 14.7507 4.25693 14.0319 4.56163C13.3131 4.86633 12.6599 5.31294 12.1098 5.87596C11.5596 6.43897 11.1232 7.10737 10.8255 7.84299C10.5278 8.5786 10.3745 9.36703 10.3745 10.1633C10.3745 10.9595 10.5278 11.7479 10.8255 12.4835C11.1232 13.2191 11.5596 13.8875 12.1098 14.4506C12.6599 15.0136 13.3131 15.4602 14.0319 15.7649C14.7507 16.0696 15.5211 16.2264 16.2991 16.2264C17.8704 16.2264 19.3773 15.5876 20.4884 14.4506C21.5995 13.3135 22.2237 11.7713 22.2237 10.1633C22.2237 8.55521 21.5995 7.01302 20.4884 5.87596C19.3773 4.73889 17.8704 4.1001 16.2991 4.1001ZM12.3494 10.1633C12.3494 9.63244 12.4515 9.10682 12.65 8.61641C12.8485 8.126 13.1395 7.6804 13.5062 7.30506C13.873 6.92971 14.3084 6.63197 14.7876 6.42884C15.2668 6.2257 15.7804 6.12115 16.2991 6.12115C16.8178 6.12115 17.3314 6.2257 17.8106 6.42884C18.2898 6.63197 18.7252 6.92971 19.092 7.30506C19.4587 7.6804 19.7497 8.126 19.9482 8.61641C20.1466 9.10682 20.2488 9.63244 20.2488 10.1633C20.2488 11.2353 19.8327 12.2634 19.092 13.0215C18.3512 13.7795 17.3466 14.2054 16.2991 14.2054C15.2516 14.2054 14.2469 13.7795 13.5062 13.0215C12.7655 12.2634 12.3494 11.2353 12.3494 10.1633ZM6.4248 21.9527C6.4248 21.1487 6.7369 20.3776 7.29244 19.8091C7.84797 19.2405 8.60144 18.9212 9.38709 18.9212H23.2111C23.9967 18.9212 24.7502 19.2405 25.3057 19.8091C25.8613 20.3776 26.1734 21.1487 26.1734 21.9527V22.6682C26.1717 22.7772 26.1642 22.8861 26.151 22.9942C26.1213 23.2722 26.0729 23.5477 26.0062 23.8188C25.7885 24.7036 25.4004 25.535 24.8647 26.2643C23.5297 28.0873 20.9835 29.7001 16.2991 29.7001C11.6147 29.7001 9.06848 28.0873 7.73348 26.2643C7.19823 25.5349 6.81061 24.7035 6.59333 23.8188C6.50736 23.4666 6.45229 23.1072 6.42875 22.745C6.42711 22.7194 6.4258 22.6938 6.4248 22.6682V21.9527ZM8.39966 22.6197V22.6439L8.41151 22.7787C8.42468 22.9053 8.45101 23.0953 8.50894 23.3284C8.66244 23.9516 8.93543 24.5374 9.31205 25.0517C10.1994 26.2603 12.0966 27.679 16.2991 27.679C20.5016 27.679 22.3988 26.2603 23.2848 25.0517C23.7456 24.4238 23.9747 23.7959 24.0879 23.3284C24.1432 23.1038 24.1798 22.8748 24.1972 22.6439L24.1985 22.6197V21.9527C24.1985 21.6847 24.0945 21.4277 23.9093 21.2382C23.7241 21.0487 23.473 20.9422 23.2111 20.9422H9.38709C9.12521 20.9422 8.87405 21.0487 8.68887 21.2382C8.50369 21.4277 8.39966 21.6847 8.39966 21.9527V22.6197Z" fill="#18242F"/>
</svg>
