<svg width="33" height="33" viewBox="0 0 33 33" fill="none" xmlns="http://www.w3.org/2000/svg">
<path d="M16.8367 18.6729L27.2502 12.9454V23C27.2502 23.4531 27.0702 23.8876 26.7498 24.208C26.4294 24.5283 25.9949 24.7083 25.5418 24.7083H7.2085C6.75542 24.7083 6.3209 24.5283 6.00052 24.208C5.68015 23.8876 5.50016 23.4531 5.50016 23V12.9448L15.9136 18.6735L15.9135 18.6737L15.9204 18.677L16.0051 18.717L16.005 18.7172L16.011 18.7196C16.1434 18.774 16.2863 18.798 16.4292 18.7899C16.5721 18.7818 16.7113 18.7418 16.8367 18.6729L16.8367 18.6729ZM29.1668 10C29.1668 7.99763 27.5442 6.375 25.5418 6.375H7.2085C5.20613 6.375 3.5835 7.99763 3.5835 10V23C3.5835 23.9614 3.96541 24.8834 4.64523 25.5633C5.32505 26.2431 6.24709 26.625 7.2085 26.625H25.5418C27.5442 26.625 29.1668 25.0024 29.1668 23V10ZM7.2085 8.29167H25.5418C25.9949 8.29167 26.4294 8.47165 26.7498 8.79203C27.0702 9.1124 27.2502 9.54692 27.2502 10V10.7581L16.3752 16.7393L5.50016 10.7588V10C5.50016 9.54692 5.68015 9.1124 6.00052 8.79203C6.3209 8.47165 6.75542 8.29167 7.2085 8.29167Z" fill="#18242F" stroke="#18242F" stroke-width="0.25"/>
</svg>
