<svg width="10" height="14" viewBox="0 0 10 14" fill="none" xmlns="http://www.w3.org/2000/svg">
<path d="M4.2238 12.3692L4.212 12.3496L1.4387 7.7351C0.943977 7.05665 0.65 6.22989 0.65 5.33912C0.65 3.0222 2.62212 1.15 5.0002 1.15C7.37856 1.15 9.3501 3.02221 9.35 5.33906L4.2238 12.3692ZM4.2238 12.3692L4.23805 12.3872M4.2238 12.3692L4.23805 12.3872M4.23805 12.3872C4.44379 12.6459 4.71067 12.8803 5.05644 12.8469C5.22226 12.8309 5.35964 12.7553 5.46872 12.6684C5.57659 12.5824 5.67349 12.4721 5.76218 12.3563L5.77345 12.3416M4.23805 12.3872L5.77345 12.3416M5.77345 12.3416L5.7831 12.3258M5.77345 12.3416L5.7831 12.3258M5.7831 12.3258L8.85112 7.30078L8.85123 7.30085M5.7831 12.3258L8.85123 7.30085M8.85123 7.30085L8.85607 7.29241M8.85123 7.30085L8.85607 7.29241M8.85607 7.29241C8.92966 7.16398 8.98535 7.03207 9.0311 6.90632M8.85607 7.29241L9.0311 6.90632M9.0311 6.90632C9.24164 6.40916 9.35007 5.87688 9.35 5.33914L9.0311 6.90632ZM5.0002 3.64882C6.00451 3.64882 6.77568 4.4095 6.77568 5.33912C6.77568 6.26865 6.0046 7.02903 5.0002 7.02903C3.99585 7.02903 3.22445 6.26869 3.22445 5.33912C3.22445 4.40957 3.99595 3.64882 5.0002 3.64882Z" stroke="#828991" stroke-width="0.7"/>
</svg>
