<svg width="1472" height="356" viewBox="0 0 1472 356" fill="none" xmlns="http://www.w3.org/2000/svg">
<g clip-path="url(#clip0_15_84)">
<path d="M121.8 280.992C120.963 280.181 120.701 278.942 121.139 277.861C121.576 276.78 122.626 276.073 123.792 276.073C151.62 276.073 253.612 276.073 284.846 276.073C286.355 276.073 287.712 276.988 288.278 278.387C288.844 279.785 288.504 281.387 287.42 282.435C268.812 300.434 217.142 350.412 217.142 350.412C210.604 356.715 200.011 356.715 193.472 350.412L121.638 280.994H121.803C121.803 280.994 121.802 280.994 121.8 280.992ZM0.820741 128.982C0.685927 127.929 1.01032 126.87 1.71136 126.073C2.41239 125.277 3.42181 124.82 4.48347 124.82C23.9455 124.81 105.852 124.81 124.302 124.81C126.347 124.81 128.004 126.468 128.004 128.512C128.004 147.117 128.004 230.246 128.004 248.851C128.004 249.833 127.614 250.774 126.92 251.468C126.226 252.163 125.284 252.553 124.302 252.553C116.606 252.553 99.1633 252.553 93.9485 252.553C92.9872 252.553 92.0637 252.179 91.3728 251.51C83.5687 243.948 35.9811 197.839 35.9811 197.839C16.1887 178.689 4.29726 154.245 0.820741 128.982ZM406.372 124.81C407.436 124.81 408.448 125.267 409.151 126.066C409.854 126.865 410.179 127.927 410.044 128.982C406.565 154.244 394.675 178.689 374.881 197.839C374.881 197.839 327.201 243.957 319.39 251.512C318.7 252.18 317.778 252.553 316.817 252.553C301.865 252.553 179.491 252.553 156.541 252.553C154.496 252.553 152.839 250.896 152.839 248.851C152.839 230.246 152.839 147.117 152.839 128.512C152.839 126.468 154.496 124.81 156.541 124.81C185.528 124.81 375.749 124.81 406.372 124.81ZM322.107 8.36602C322.107 7.21168 322.644 6.1239 323.561 5.42371C324.478 4.72352 325.669 4.49012 326.782 4.79345C346.952 10.4944 365.862 21.4775 381.171 37.7496C398.457 56.1281 408.1 78.6327 410.501 101.796C410.6 102.831 410.257 103.86 409.556 104.629C408.857 105.398 407.865 105.837 406.825 105.837C391.946 105.847 340.145 105.847 325.808 105.847C324.827 105.847 323.886 105.457 323.191 104.762C322.497 104.068 322.107 103.127 322.107 102.145C322.107 86.5126 322.107 25.907 322.107 8.36602ZM4.02004 105.847C2.97776 105.847 1.98351 105.408 1.28164 104.637C0.579761 103.866 0.235985 102.834 0.333726 101.797C2.73257 78.6336 12.3558 56.1289 29.6086 37.7496C75.3746 -10.8989 153.334 -12.2732 200.838 33.7094C202.411 35.2446 203.9 36.7806 205.39 38.2349C206.797 36.6997 208.287 35.1637 209.859 33.7094C232.986 11.3614 263.289 0.199667 293.591 0.213991C295.625 0.225787 297.268 1.8781 297.268 3.91295C297.272 20.1412 297.272 85.7939 297.272 102.145C297.272 103.127 296.882 104.068 296.188 104.762C295.494 105.457 294.552 105.847 293.57 105.847C261.901 105.847 36.9517 105.847 4.02004 105.847Z" fill="url(#paint0_linear_15_84)"/>
<path d="M680.843 175.481V174.466C697.466 164.997 706.82 150.098 706.82 128.074C706.82 87.7892 677.026 62.7593 618.431 62.7593H530.042V299.704H627.453C690.891 299.704 716.875 269.601 716.875 227.614C716.875 202.881 704.057 185.288 680.843 175.481ZM615.309 108.422C635.779 108.422 647.23 116.892 647.23 134.173C647.23 149.42 636.821 159.924 615.309 159.924H589.632V108.422H615.309ZM624.326 254.042H589.632V199.493H624.326C645.489 199.493 656.591 208.979 656.591 225.242C656.591 241.506 646.53 254.042 624.326 254.042Z" fill="#18242F"/>
<path d="M858.723 128.1V220.863C858.723 239.822 847.273 250.318 830.618 250.318C815.351 250.318 802.513 240.5 802.513 220.863V128.1H746.389V235.759C746.389 270.277 766.829 304.105 810.84 304.105C833.741 304.105 849.008 295.309 858.723 284.147V299.704H915.194V128.1H858.723Z" fill="#18242F"/>
<path d="M953.379 299.704H1009.5V128.1H953.379V299.704ZM981.441 109.099C997.725 109.099 1010.89 95.905 1010.89 80.0046C1010.89 64.1049 997.725 51.2487 981.441 51.2487C965.158 51.2487 951.992 64.1049 951.992 80.0046C951.992 95.905 965.158 109.099 981.441 109.099Z" fill="#18242F"/>
<path d="M1104.15 62.7593H1047.68V299.703H1104.15V62.7593Z" fill="#18242F"/>
<path d="M1265.76 62.7593V145.011C1255.35 132.833 1239.74 124.037 1216.15 124.037C1161.38 124.037 1131.93 169.029 1131.93 214.071C1131.93 259.113 1161.38 304.105 1216.15 304.105C1239.74 304.105 1255.35 295.309 1265.76 283.131V299.704H1321.88V62.7593H1265.76ZM1226.21 250.656C1202.97 250.656 1188.75 235.073 1188.75 214.071C1188.75 192.73 1202.97 177.148 1226.21 177.148C1247.37 177.148 1264.03 191.036 1264.03 214.071C1264.03 236.767 1247.37 250.656 1226.21 250.656Z" fill="#18242F"/>
<path d="M1416.19 154.148V128.1H1360.06V299.704H1416.19V231.993C1416.19 203.216 1421.73 175.46 1471.66 182.903V124.037C1450.86 124.037 1428.67 134.866 1416.19 154.148Z" fill="#18242F"/>
</g>
<defs>
<linearGradient id="paint0_linear_15_84" x1="6.10223e-05" y1="177.677" x2="410.846" y2="177.677" gradientUnits="userSpaceOnUse">
<stop stop-color="#FCD65C"/>
<stop offset="1" stop-color="#EDB341"/>
</linearGradient>
<clipPath id="clip0_15_84">
<rect width="1472" height="356" fill="white"/>
</clipPath>
</defs>
</svg>
