<svg width="21" height="19" viewBox="0 0 21 19" fill="none" xmlns="http://www.w3.org/2000/svg">
<path d="M8.10006 13.2785L16.8223 16.3802C16.9688 16.4325 17.1253 16.4517 17.2802 16.4362C17.4351 16.4207 17.5846 16.371 17.7178 16.2907C17.8509 16.2104 17.9643 16.1015 18.0497 15.9721C18.135 15.8426 18.1902 15.6958 18.2112 15.5424L19.9906 2.17043C20.0989 1.35629 19.2505 0.748987 18.5019 1.10317L1.59238 9.12749C0.756356 9.52417 0.819057 10.7237 1.69308 11.0325L4.01115 11.8523L5.27468 12.2934M11.4499 14.4685L9.55931 17.6099C8.94179 18.373 7.6982 17.9414 7.6982 16.9648V14.4496C7.69824 13.975 7.878 13.5178 8.20172 13.1689L11.8793 9.2021" stroke="#18242F" stroke-linecap="round" stroke-linejoin="round"/>
</svg>
