<svg width="39" height="35" viewBox="0 0 39 35" fill="none" xmlns="http://www.w3.org/2000/svg">
<path d="M19.2 34.0702C18.7626 34.0699 18.3433 33.8958 18.0343 33.5864L3.1437 18.6518C1.12867 16.5961 0 13.8322 0 10.9536C0 8.07496 1.12867 5.3111 3.1437 3.25536C5.18547 1.2138 7.95458 0.0668784 10.8419 0.0668784C13.7293 0.0668784 16.4984 1.2138 18.5401 3.25536L19.2 3.82723L19.8159 3.21137C20.8254 2.1908 22.0279 1.38129 23.3533 0.829974C24.6787 0.278659 26.1006 -0.0034385 27.5361 0.000108622C28.97 -0.00631604 30.391 0.272319 31.7163 0.819823C33.0416 1.36733 34.2449 2.17278 35.2563 3.18937C37.2713 5.24512 38.4 8.00898 38.4 10.8876C38.4 13.7662 37.2713 16.5301 35.2563 18.5858L20.3657 33.5204C20.2183 33.6856 20.0391 33.8194 19.8388 33.9139C19.6385 34.0083 19.4213 34.0615 19.2 34.0702Z" fill="#FCD65C"/>
</svg>
